<svg xmlns="http://www.w3.org/2000/svg" viewBox="0 0 1021.2 232" style="enable-background:new 0 0 1021.2 232" xml:space="preserve"><path d="M368.8 176.9c-1.9 1.3-4.1 2-6.3 2-3.3 0-6.5-1.5-8.7-4.4l-24.3-33.2c-3.7 1.3-8 2.4-12.4 3v23.9c0 5.9-5 10.8-10.9 10.8s-10.8-4.8-10.8-10.8V59.6c0-5.9 4.8-10.8 10.8-10.8 5.9 0 10.9 4.8 10.9 10.8v63c3.7-.7 7-2 10-3.7.6-.2.9-.4 1.5-.7 9.6-5.7 16.3-16.5 21.1-33.5 1.5-5.7 7.4-9.1 13.1-7.4 5.7 1.7 9.1 7.6 7.6 13.3-2.4 8.2-7.6 26.7-22.2 39.8l23 31.5c3.6 4.6 2.4 11.5-2.4 15zm198.3 2.8c-28.6 0-51.8-23.4-51.8-51.8 0-28.6 23.2-52 51.8-52 28.6 0 52 23.4 52 52 0 28.4-23.4 51.8-52 51.8zm0-81.8c-16.5 0-29.8 13.5-29.8 30 0 16.3 13.3 29.8 29.8 29.8s29.8-13.5 29.8-29.8c0-16.5-13.3-30-29.8-30zM998 59.8c0-6.3 5.2-10.9 11.5-10.9 6.5 0 11.5 4.6 11.7 10.9-.2 6.3-5.2 10.9-11.7 10.9-6.3 0-11.5-4.6-11.5-10.9zm22.4 30v78.5c0 5.9-4.8 10.8-10.9 10.8-5.9 0-10.8-4.8-10.8-10.8V89.8c0-5.9 4.8-10.8 10.8-10.8 6.1 0 10.9 4.8 10.9 10.8zm-96.4 89c-4.2 0-8-2.4-9.8-6.2l-38-80.3c-2.6-5.4-.3-11.9 5.2-14.4 5.4-2.6 11.9-.3 14.4 5.2l28.2 59.6 28.2-59.6c2.6-5.4 9-7.7 14.4-5.2 5.4 2.6 7.7 9 5.2 14.4l-38 80.3c-1.8 3.8-5.7 6.2-9.8 6.2zm-429.6-15.2c-4-16.6-4.7-26-5-34.1V87.6c0-5.9-4.8-10.8-10.8-10.8-5.2 0-9.4 3.5-10.6 8.3-7.8-5.4-17.2-8.3-27.2-8.3-13.7 0-26.1 5.4-35.2 15.4-8.5 9.3-13.3 22-13.3 35.6 0 13.7 4.8 26.5 13.3 35.8 9.1 10 21.5 15.4 35.2 15.4 10 0 19.4-3 27.2-8.3.6-.5 1.2-.9 1.9-1.5 0 .1 0 .2.1.3 1.8 6.7 8.6 10.7 15.3 9.1 6.8-1.6 10.9-8.4 9.1-15zm-53.6-6.1c-15.7 0-27.1-12.4-27.1-29.6 0-17 11.3-29.5 27.1-29.5 15.6 0 27 12.4 27 29.5.1 17.1-11.4 29.6-27 29.6zm412.9 6.1c-4-16.6-4.7-26-5-34.1V87.6c0-5.9-4.8-10.8-10.8-10.8-5.2 0-9.4 3.5-10.6 8.3-7.8-5.4-17.2-8.3-27.2-8.3-13.7 0-26.1 5.4-35.2 15.4-8.5 9.3-13.3 22-13.3 35.6 0 13.7 4.8 26.5 13.3 35.8 9.1 10 21.5 15.4 35.2 15.4 10 0 19.4-3 27.2-8.3.6-.5 1.2-.9 1.9-1.5 0 .1 0 .2.1.3 1.8 6.7 8.6 10.7 15.3 9.1 6.8-1.6 10.9-8.4 9.1-15zm-53.5-6.1c-15.7 0-27.1-12.4-27.1-29.6 0-17 11.3-29.5 27.1-29.5 15.6 0 27 12.4 27 29.5s-11.5 29.6-27 29.6zM685.5 77.4c-8.5 0-16.3 2.5-22.8 6.9-2.6-5.1-8.5-8-14.3-6.6-6.8 1.6-10.9 8.4-9.1 15 3.1 12.7 4.7 22.1 4.7 28.9v47.1c0 5.9 4.8 10.8 10.9 10.8 5.9 0 10.8-4.8 10.8-10.8v-47c0-10.9 6.1-22.8 19.8-22.8s19.8 11.9 19.8 22.8v47.1c0 5.9 4.8 10.8 10.8 10.8 6.1 0 10.9-4.8 10.9-10.8v-47.1c.1-25.2-17.9-44.3-41.5-44.3z" style="fill:#202226"/><path d="M197.3 94.6h-83.5c-23.5-.4-39.1 22.1-33.1 42.9.9 3.3 2.4 6.5 4.5 9.6l45.3 70.1c14.1 21 45.4 19.5 57.5-2.7l38.2-70.1c12.1-22.3-3.7-49.4-28.9-49.8zm2.9 54.6c-6 11.1-19.9 15.2-31 9.1-11.1-6-15.2-19.9-9.1-31 6-11.1 19.9-15.2 31-9.1 11.1 6 15.2 19.9 9.1 31z" style="fill:#ffda1b"/><path d="M149.7 94.6c-.9-3.3-2.4-6.5-4.5-9.6L99.8 14.9c-14.1-21-45.4-19.5-57.5 2.7L4.1 87.7C-8 109.9 7.8 137 33 137.5h83.5c23.6.4 39.1-22.2 33.2-42.9zm-79.4 10.1c-6 11.1-19.9 15.2-31 9.1-11.1-6-15.2-19.9-9.1-31 6-11.1 19.9-15.2 31-9.1 11 6 15.1 19.9 9.1 31z" style="fill:#447fe0"/><path d="M149.7 94.6h-35.9c-23.5-.4-39.1 22.1-33.1 42.9h35.9c23.5.4 39-22.2 33.1-42.9z" style="fill:#2f7417"/></svg>