<svg width="24" height="24" viewBox="0 0 24 24" fill="none" xmlns="http://www.w3.org/2000/svg">
<g clip-path="url(#clip0_309_463)">
<path d="M18 17.6714H6V22.0027H18V17.6714Z" fill="#D80C18"/>
<path d="M14.7691 4.22321L14.8644 4.24447C15.2627 4.32882 15.6524 4.44979 16.0287 4.60585C16.2933 4.72277 16.4891 4.6776 16.5843 4.41719L17.3411 2.46679C17.4126 2.25421 17.4152 2.08681 17.2697 1.99115C16.8829 1.76635 16.4763 1.57777 16.0551 1.42782V1.42782C15.7905 1.34013 15.5471 1.26573 15.2878 1.19133C14.579 1.03042 13.8518 0.966073 13.1259 1.00001C10.5301 1.14881 8.74134 2.20904 8.27034 4.48628C7.74112 7.1063 9.62249 8.53854 11.9907 9.02215C12.9566 9.2427 13.8033 9.43668 13.634 10.1887C13.5149 10.7467 12.9327 11.1107 11.7817 11.1107C10.6508 11.1171 9.54908 10.7502 8.64608 10.0664C8.60362 10.0295 8.55356 10.0025 8.49948 9.98731C8.4454 9.97211 8.38864 9.96909 8.33327 9.97849C8.2779 9.98788 8.22528 10.0095 8.17917 10.0417C8.13307 10.0739 8.09463 10.1159 8.06659 10.1648L6.67475 12.0567C6.63737 12.098 6.60935 12.1469 6.59264 12.2001C6.57593 12.2533 6.57093 12.3095 6.57797 12.3648C6.58502 12.4202 6.60395 12.4733 6.63345 12.5206C6.66295 12.5679 6.70232 12.6081 6.74884 12.6386C8.07188 13.7307 9.65954 14.2648 11.652 14.2648C14.6739 14.2648 16.8225 13.0744 17.3067 10.5022C17.8148 7.66431 15.4942 6.50045 13.634 6.08858C12.475 5.82286 11.7023 5.60231 11.8452 4.87423C11.9431 4.26839 12.4988 4.07707 13.3932 4.07707C13.8135 4.07569 14.2329 4.11753 14.6448 4.20196L14.7691 4.22321Z" fill="#004F99"/>
</g>
<defs>
<clipPath id="clip0_309_463">
<rect width="12" height="21" fill="white" transform="translate(6 1)"/>
</clipPath>
</defs>
</svg>
