<svg id="menu-logo-jp-pc" width="503" height="156" viewBox="0 0 503 156" fill="none" xmlns="http://www.w3.org/2000/svg">
<g clip-path="url(#clip0_1247_2714)">
<path d="M140.391 14.8705V12.6405H147.531C146.051 16.8005 142.841 21.1405 142.841 21.1405L147.051 23.4905C150.971 17.9005 153.461 10.5805 153.461 10.5805L150.701 8.26047H134.281C134.941 6.30047 135.761 2.01047 135.761 2.01047L130.911 0.980469C129.911 7.02047 128.241 13.0205 124.161 18.7705L127.731 22.2005C129.721 19.5305 131.691 15.1305 132.661 12.6405H135.521V14.7305C135.521 28.6705 129.541 34.8005 122.441 38.1005L125.861 42.2105C132.571 38.6205 136.951 32.7105 138.501 25.3905C140.271 31.3005 145.711 38.3205 151.841 42.0905L155.001 37.4705C145.931 32.1505 140.321 23.4305 140.371 14.8805L140.391 14.8705Z" fill="black"/>
<path d="M125.25 26.83L121.72 23.25C120.03 26.9 116.2 32.94 113.23 36.35L116.93 40.73C119.43 37.61 123 31.8 125.25 26.82V26.83Z" fill="black"/>
<path d="M121.131 15.7805L124.931 11.7305C122.731 9.10055 119.011 5.78055 117.431 4.56055L113.861 8.18055C115.791 9.53055 119.861 13.9605 121.131 15.7805Z" fill="black"/>
<path d="M200.289 28.0811C199.399 33.3111 198.759 35.4111 197.839 35.4111C197.119 35.4111 195.859 34.1511 194.559 32.3611C191.969 28.8111 190.459 23.6611 189.549 18.0411L203.439 16.8411L203.099 12.3711L188.959 13.5511C188.529 9.54109 188.329 5.44109 188.219 1.62109H183.229C183.289 5.90109 183.529 10.0711 183.959 13.9711L175.359 14.6811L175.749 19.2511L184.559 18.4911C185.589 24.9611 187.229 30.4311 189.599 34.0211C193.139 39.4011 196.749 41.4811 198.879 41.4811C201.459 41.4811 203.169 38.3311 204.569 30.9311L200.299 28.0811H200.289Z" fill="black"/>
<path d="M176.96 2.37055L172.39 1.31055C169.92 10.6605 166.22 17.2805 161.75 23.1105L165.35 26.2605C166.57 24.6405 167.74 22.9705 168.85 21.2105V42.0905H173.56V12.2505C174.85 9.26055 175.99 5.99055 176.96 2.36055V2.37055Z" fill="black"/>
<path d="M197.019 12.0013L201.039 8.96133C199.029 6.18133 197.229 4.09133 195.189 2.11133L191.359 4.81133C193.319 6.64133 195.289 9.14133 197.019 12.0013Z" fill="black"/>
<path d="M246.31 16.2811C245.17 16.7511 238.45 19.4511 236.41 20.3211C235.37 17.4311 232.89 15.7711 229.58 15.7711C228.33 15.7711 226.98 16.0911 225.65 16.7111C226.47 15.4211 227.27 14.0711 228.01 12.7111C233.41 12.2211 239.94 11.3711 241.69 11.0611L241.07 6.44109C237.7 7.16109 234.01 7.75109 230.3 8.12109C230.98 6.60109 231.62 5.02109 232.17 3.50109L227.56 2.12109C226.79 4.59109 226.04 6.70109 225.29 8.55109C221.9 8.76109 218.26 8.86109 214.71 8.86109L215.19 13.4811C217.69 13.3911 220.53 13.2511 223.24 13.0811C220.92 17.6411 217.99 21.5111 214.49 24.7311L218.22 27.5011C220.24 24.8611 221 24.0611 222.72 22.6211C224.16 21.3911 226.42 19.9211 228.96 19.9211C230.56 19.9211 231.73 20.7211 232.28 22.1711C226.78 24.8011 221.18 28.1211 221.18 32.8511C221.18 37.5811 225.11 40.0911 232.55 40.0911C238.02 40.0911 242.01 39.6211 245.39 39.1211L244.53 34.2711C240.57 35.0811 235.95 35.6111 232.64 35.6111C228.25 35.6111 226.03 34.5611 226.03 32.4911C226.03 30.6711 228.22 28.7311 232.72 26.5711V27.6711C232.72 29.4711 232.52 31.8711 232.44 32.7711H237.2C237.39 30.6011 237.31 26.8711 237.12 24.6111C240.41 23.3711 243.72 22.1911 248.14 20.7011L246.33 16.2711L246.31 16.2811Z" fill="black"/>
<path d="M259.221 29.7305L255.301 33.1105C258.331 35.9205 261.211 39.3905 263.151 42.6905L267.391 38.9505C265.021 35.5605 261.861 31.9805 259.231 29.7305H259.221Z" fill="black"/>
<path d="M355.3 18.1198C353.53 18.1198 351.7 18.3798 349.86 18.8998C353.77 15.3698 357.16 12.1398 361.44 7.55977L358.75 4.25977C353.16 5.30977 347.59 5.83977 341.1 5.94977L341.96 10.5198C346.21 10.3198 350.57 9.88977 353.85 9.33977C345.78 18.3798 337.5 24.9898 335.17 26.7898L338.46 30.3598C340.73 28.0498 342.36 26.6798 344.47 25.3498C347.4 23.5098 351.35 22.3698 354.77 22.3698C359.68 22.3698 363.11 24.6998 363.11 28.0298C363.11 30.3698 361.89 32.4898 359.66 34.0098C357.43 30.1698 353.99 27.9698 350.18 27.9698C346.37 27.9698 343.31 30.3298 343.31 33.5698C343.31 37.4498 346.98 40.2598 352.04 40.2598C361.14 40.2598 367.99 34.9398 367.99 27.8898C367.99 22.0398 362.89 18.1098 355.3 18.1098V18.1198ZM355.68 35.6898C354.63 35.9398 353.59 36.0598 352.48 36.0598C349.79 36.0598 348.05 35.1398 348.05 33.7098C348.05 32.7098 348.99 32.0498 350.4 32.0498C352.43 32.0498 354.3 33.3398 355.69 35.6898H355.68Z" fill="black"/>
<path d="M382.201 29.5898C378.441 29.5898 375.381 32.6098 375.381 36.3098C375.381 40.0098 378.461 43.1298 382.101 43.1298C385.741 43.1298 388.921 40.0898 388.921 36.3598C388.921 32.6298 385.841 29.5898 382.201 29.5898ZM382.151 39.5098C380.381 39.5098 379.001 38.1298 379.001 36.3598C379.001 34.5898 380.441 33.2098 382.151 33.2098C383.861 33.2098 385.301 34.5898 385.301 36.3598C385.301 38.1298 383.861 39.5098 382.151 39.5098Z" fill="black"/>
<path d="M15.95 71.3301H0V144.46H47.81V131.87H15.95V71.3301Z" fill="black"/>
<path d="M153.37 83.2402L139.58 123.78L125.68 83.2402H109.52L130.32 144.46H145.2L166.05 83.2402H153.37Z" fill="black"/>
<path d="M249.74 92.8704V83.2404H234.35V144.46H249.74V107.89C252.46 102.93 258.13 95.4804 269.31 97.1204V82.1004C258.14 80.4604 252.46 87.9104 249.74 92.8704Z" fill="black"/>
<path d="M499.72 115.851C497.54 112.991 493.07 110.131 486.06 107.101L481.9 105.301C479.5 104.281 477.84 103.231 476.97 102.201C476.1 101.191 475.65 100.041 475.65 98.7706C475.65 97.1006 476.31 95.7806 477.68 94.7306C479.06 93.6506 481.19 93.1106 484.01 93.1106C490.22 93.1106 498.81 96.7006 498.81 96.7006V84.1306C498.81 84.1306 490.53 81.8906 482.89 81.8906C475.25 81.8906 469.76 83.6506 466.07 87.1206C462.1 90.8806 460.09 95.3506 460.09 100.421C460.09 104.491 461.52 108.261 464.22 111.321C466.65 114.121 470.42 116.691 475.43 118.971L480.27 121.141C482.71 122.241 484.44 123.311 485.56 124.401C486.65 125.471 487.18 126.751 487.18 128.331C487.18 130.141 486.46 131.601 484.99 132.781C483.49 133.981 481.5 134.571 478.92 134.571C470.15 134.571 459.83 129.241 459.83 129.241V142.331C459.83 142.331 469.63 145.831 479.9 145.831C487.36 145.831 493.13 143.851 497.05 139.951C500.98 136.051 502.97 131.441 502.97 126.241C502.97 122.261 501.88 118.761 499.72 115.841V115.851Z" fill="black"/>
<path d="M78.5909 81.9309C61.0209 82.2709 54.2109 100.131 54.2109 113.421C54.2109 126.711 59.6309 140.981 74.3409 144.671C89.0509 148.361 102.971 142.331 102.971 142.331V129.761C102.971 129.761 90.7009 135.321 82.4909 133.681C74.3909 132.061 70.9109 125.601 70.3409 118.841H102.961C103.281 95.7709 98.0009 81.5609 78.5809 81.9309H78.5909ZM87.8309 108.071H69.9709C70.7709 100.211 73.7009 93.1109 79.4209 93.1109C88.5909 93.1109 87.8309 108.071 87.8309 108.071Z" fill="black"/>
<path d="M195.749 81.9309C178.179 82.2709 171.369 100.131 171.369 113.421C171.369 126.711 176.789 140.981 191.499 144.671C206.209 148.361 220.129 142.331 220.129 142.331V129.761C220.129 129.761 207.859 135.321 199.649 133.681C191.549 132.061 188.069 125.601 187.499 118.841H220.119C220.439 95.7709 215.159 81.5609 195.739 81.9309H195.749ZM204.989 108.071H187.129C187.929 100.211 190.859 93.1109 196.579 93.1109C205.749 93.1109 204.989 108.071 204.989 108.071Z" fill="black"/>
<path d="M423.37 81.9309C405.8 82.2709 398.99 100.131 398.99 113.421C398.99 126.711 404.41 140.981 419.12 144.671C434.06 148.411 447.75 142.331 447.75 142.331V129.761C447.75 129.761 435.48 135.321 427.27 133.681C419.17 132.061 415.69 125.601 415.12 118.841H447.74C448.06 95.7709 442.78 81.5609 423.36 81.9309H423.37ZM432.61 108.071H414.75C415.55 100.211 418.48 93.1109 424.2 93.1109C433.37 93.1109 432.61 108.071 432.61 108.071Z" fill="black"/>
<path d="M307.921 138.08C310.881 147.78 321.511 146.64 328.021 144.17V132.9C328.021 132.9 322.001 135.48 322.001 129.75V101.25C322.001 93.8601 319.801 86.08 309.661 83.1101C299.381 80.1001 288.501 82.8801 280.881 86.2601V98.82C280.881 98.82 289.711 92.9901 298.211 93.1201C303.711 93.2101 307.261 95.1801 307.261 101.8V104.39C307.261 104.39 305.471 104.35 304.001 104.39C298.781 104.53 289.371 105.73 282.781 112.22C278.481 116.45 276.211 121.89 276.211 127.95C276.211 132.94 278.271 140.16 284.011 143.59C289.401 146.81 299.851 147.74 307.921 138.08ZM294.171 118.67C296.391 116.84 299.831 115.92 304.391 115.92H307.251V127.63C302.711 132.55 297.621 133.92 294.531 132.19C291.601 130.55 290.911 127.64 290.911 125.43C290.911 122.75 292.011 120.47 294.171 118.67Z" fill="black"/>
<path d="M373.99 83.0604L372.67 87.7904C367.67 82.9804 363.15 81.9004 358.36 81.9004C351.3 81.9004 347.37 83.9904 343.24 88.1104C339.11 92.2404 335.73 100.34 335.73 109.82C335.73 119.3 339.51 129.7 347.85 133.24C356.19 136.78 366.89 135.3 372.42 125.47V130.34C372.42 136.56 371.28 142.27 361.61 143.57C351.94 144.87 341.42 139.54 341.42 139.54V152.3C346.08 153.9 362.65 158.72 374.9 152.86C387.04 147.05 387.49 132.65 387.49 123.12V83.0704H373.99V83.0604ZM372.42 114.42C369.09 119.51 362.32 123.75 356.87 120.74C351.77 117.92 351.73 111.04 351.73 109.06C351.73 104.05 352.86 98.6604 356.03 95.5004C359.2 92.3304 365.92 90.6404 372.42 97.8604V114.43V114.42Z" fill="black"/>
<path d="M317.57 5.73047H313.1V31.8305H317.57V5.73047Z" fill="black"/>
<path d="M321.061 35.8008C321.061 36.9808 320.771 37.1908 319.951 37.1908C318.651 37.1908 316.381 37.0108 314.391 36.7508L315.231 41.3708C317.021 41.5708 319.291 41.7108 320.891 41.7108C324.501 41.7108 325.541 40.7408 325.541 37.3908V1.80078H321.071V35.8008H321.061Z" fill="black"/>
<path d="M305.871 12.82V10.69C307.311 11.78 308.781 12.99 310.101 14.28L312.641 10.6C312.641 10.6 307.371 6.08 301.391 2.9L301.701 2.48L302.471 1.28L297.761 0L297.721 0.07C294.771 5.19 290.501 9.55 285.071 12.92L287.481 16.76C288.281 16.19 289.561 15.23 289.561 15.23V24.61C289.561 29.56 288.061 33.75 284.891 37.48L287.881 41.11C290.001 38.68 291.481 35.89 292.551 32.37V42.08H296.741V40.35H305.751V41.71H309.991V29.51H293.301C293.461 28.81 293.511 28.36 293.641 27.29H309.521V14.53H290.431C291.951 13.32 293.141 12.27 294.331 11.1V12.82H305.871ZM296.741 32.86H305.751V36.86H296.741V32.86ZM293.791 17.6H305.371V19.49H293.791V17.6ZM293.791 22.28H305.371V24.27H293.791V22.28ZM298.851 6.26L298.991 6.1C300.001 6.69 302.111 7.98 304.471 9.66H295.861C297.041 8.39 297.851 7.44 298.861 6.26H298.851Z" fill="black"/>
</g>
<defs>
<clipPath id="clip0_1247_2714">
<rect width="502.98" height="155.67" fill="white"/>
</clipPath>
</defs>
</svg>
