<svg width="130" height="33" viewBox="0 0 130 33" fill="none" xmlns="http://www.w3.org/2000/svg">
<path fill-rule="evenodd" clip-rule="evenodd" d="M17.3578 7.34822L26.8413 31.9514H19.8172L13.855 16.4591L7.87422 31.9514H0.859375L10.3429 7.34822V0.333374H17.3578V7.34822ZM27.6245 14.8288C27.6245 18.8533 30.7639 21.6481 34.7511 22.3095L34.7697 22.2908L38.5426 22.9895C40.3499 23.3063 40.9834 23.9025 40.9834 24.8807C40.9834 25.9333 40.0052 26.7718 37.9092 26.7718C34.6952 26.7718 32.5619 25.1322 31.062 23.1759L27.0469 27.2283C29.0777 30.2 32.8507 32.3333 37.3875 32.3333C42.9118 32.3333 47.3461 29.1939 47.3461 24.6478C47.3461 20.1016 44.6911 17.5491 39.5208 16.6454L36.1671 16.0492C34.5927 15.7697 33.9965 15.1828 33.9965 14.3724C33.9965 13.2545 35.1517 12.6303 36.7913 12.6303C39.0923 12.6303 41.1231 14.0649 42.4833 15.7045L46.4984 11.4006C44.3651 8.92258 41.356 7.06873 37.0614 7.06873C31.9936 7.06873 27.6245 10.0778 27.6245 14.8288ZM56.4568 22.3095C52.4789 21.6481 49.3302 18.8533 49.3302 14.8288C49.3302 10.0778 53.6993 7.06872 58.7671 7.06872C63.0617 7.06872 66.0708 8.92258 68.2041 11.4006L64.189 15.7045C62.8289 14.0649 60.798 12.6303 58.497 12.6303C56.8574 12.6303 55.7022 13.2545 55.7022 14.3724C55.7022 15.1828 56.2984 15.7697 57.8635 16.0492L61.2172 16.6454C66.3875 17.5491 69.0425 20.1016 69.0425 24.6478C69.0425 29.1939 64.6082 32.3333 59.0839 32.3333C54.5377 32.3333 50.7648 30.2 48.7433 27.2283L52.7584 23.1759C54.2583 25.1322 56.3916 26.7718 59.6056 26.7718C61.7016 26.7718 62.6798 25.9333 62.6798 24.8807C62.6798 23.9025 62.0463 23.3063 60.2297 22.9895L56.4568 22.2908V22.3095ZM78.3764 7.46005H72.0137V31.9515H78.3764V7.46005ZM99.5238 15.5275L99.5196 15.5222L103.502 11.4379C101.229 8.78285 98.2568 7.06872 93.8224 7.06872C86.6306 7.06872 81.2833 12.4812 81.2833 19.6824C81.2833 26.8836 86.4536 32.3333 93.6827 32.3333C98.2941 32.3333 101.368 30.8614 104.023 28.2437V18.108H93.2635V23.3156H98.0518V25.4489C97.0364 26.1476 95.8067 26.5668 94.2044 26.5668C90.3662 26.5668 87.851 23.4181 87.851 19.6824C87.851 15.9467 90.4408 12.8352 94.1392 12.8352C96.6889 12.8352 98.2626 13.9135 99.5196 15.5222L99.5144 15.5275H99.5238ZM114.01 16.804V31.9515H107.647V7.46005H115.855L123.363 22.6263V7.46005H129.754V31.9515H121.509L114.01 16.804Z" fill="#D70C18"/>
</svg>
