<svg width="114" height="20" viewBox="0 0 114 20" fill="none" xmlns="http://www.w3.org/2000/svg">
<path d="M8.24971 19.9999C2.92922 19.9999 9.70595e-05 16.9323 9.70595e-05 11.3633V0.363795C-0.000454661 0.352222 0.00135003 0.340658 0.00540169 0.329804C0.00945334 0.318949 0.0156675 0.309031 0.0236674 0.30065C0.0316672 0.292269 0.041286 0.285601 0.0519403 0.281049C0.0625947 0.276497 0.0740626 0.274157 0.0856486 0.27417H4.23693C4.24852 0.274157 4.25999 0.276497 4.27064 0.281049C4.2813 0.285601 4.29092 0.292269 4.29892 0.30065C4.30692 0.309031 4.31313 0.318949 4.31718 0.329804C4.32123 0.340658 4.32304 0.352222 4.32249 0.363795V11.2533C4.32249 14.2639 5.73612 15.9219 8.30674 15.9219C10.8774 15.9219 12.2869 14.3128 12.2869 11.4081V0.363795C12.2869 0.340025 12.2964 0.317229 12.3132 0.300421C12.33 0.283613 12.3528 0.27417 12.3766 0.27417H16.5238C16.5475 0.27417 16.5703 0.283613 16.5871 0.300421C16.6039 0.317229 16.6134 0.340025 16.6134 0.363795V11.2248C16.6134 16.8834 13.6435 19.9999 8.24971 19.9999Z" fill="black"/>
<path d="M23.0175 19.6984H18.8703C18.8587 19.6984 18.8473 19.6961 18.8366 19.6916C18.826 19.687 18.8163 19.6803 18.8083 19.6719C18.8003 19.6636 18.7941 19.6536 18.7901 19.6428C18.786 19.6319 18.7842 19.6204 18.7848 19.6088V0.363795C18.7842 0.352222 18.786 0.340658 18.7901 0.329804C18.7941 0.318949 18.8003 0.309031 18.8083 0.30065C18.8163 0.292269 18.826 0.285601 18.8366 0.281049C18.8473 0.276497 18.8587 0.274157 18.8703 0.27417H26.5781C31.0146 0.27417 33.8867 2.92219 33.8867 7.01644V7.07348C33.8867 11.2329 30.8598 13.9217 26.1707 13.9217H23.1072V19.6251C23.1033 19.6459 23.0922 19.6648 23.0758 19.6782C23.0594 19.6916 23.0387 19.6988 23.0175 19.6984ZM23.1072 9.98223H26.3092C28.224 9.98223 29.5072 8.84561 29.5072 7.15495V7.09792C29.5072 5.30134 28.3136 4.27065 26.2278 4.27065H23.1072V9.98223Z" fill="black"/>
<path d="M42.5314 19.9633C39.5512 19.9726 36.6754 18.8667 34.4692 16.8631C34.4546 16.8461 34.4465 16.8244 34.4465 16.802C34.4465 16.7796 34.4546 16.7579 34.4692 16.7409L36.9135 13.7466C36.921 13.7374 36.9303 13.7297 36.9408 13.7242C36.9513 13.7186 36.9628 13.7151 36.9746 13.714C36.9943 13.7065 37.0161 13.7065 37.0357 13.714C38.9138 15.2947 40.7022 16.032 42.6129 16.032C44.2628 16.032 45.2487 15.3843 45.2487 14.3006V14.2599C45.2487 13.2822 44.7313 12.7363 41.5129 11.897C37.9361 11.0008 35.1984 9.94974 35.1984 5.94511V5.88808C35.1984 2.42121 37.9483 0.00132641 41.8837 0.00132641C44.4565 -0.0388785 46.96 0.836049 48.9478 2.4701C48.9618 2.48578 48.9696 2.50609 48.9696 2.52713C48.9696 2.54817 48.9618 2.56848 48.9478 2.58417L46.7927 5.77401C46.7866 5.78405 46.7783 5.79257 46.7684 5.79892C46.7585 5.80527 46.7473 5.80929 46.7357 5.81068C46.7255 5.81542 46.7143 5.81787 46.7031 5.81787C46.6918 5.81787 46.6807 5.81542 46.6705 5.81068C44.882 4.54777 43.2932 3.92854 41.8144 3.92854C40.3356 3.92854 39.476 4.55592 39.476 5.52143V5.57439C39.476 6.73952 40.1523 7.15098 43.4806 8.01872C48.4997 9.35088 49.5263 11.3267 49.5263 13.877V13.9299C49.5426 17.6534 46.8497 19.9633 42.5314 19.9633Z" fill="black"/>
<path d="M68.9139 19.6984H61.5565C61.5449 19.6984 61.5334 19.6961 61.5228 19.6915C61.5121 19.687 61.5025 19.6803 61.4945 19.6719C61.4865 19.6636 61.4803 19.6536 61.4762 19.6428C61.4722 19.6319 61.4704 19.6204 61.4709 19.6088V0.363795C61.4704 0.352222 61.4722 0.340658 61.4762 0.329804C61.4803 0.318949 61.4865 0.309031 61.4945 0.30065C61.5025 0.292269 61.5121 0.285601 61.5228 0.281049C61.5334 0.276497 61.5449 0.274157 61.5565 0.27417H68.9139C74.7722 0.27417 79.0253 4.34805 79.0253 9.93334V9.9863C79.0334 15.6123 74.7722 19.6984 68.9139 19.6984ZM65.7933 15.702H68.9139C72.2626 15.702 74.5114 13.4287 74.5114 10.0433V9.9863C74.5114 6.62127 72.2097 4.28287 68.9139 4.28287H65.7933V15.702Z" fill="black"/>
<path d="M95.2027 19.6984H80.8381C80.8266 19.6984 80.8151 19.6961 80.8044 19.6915C80.7938 19.687 80.7842 19.6803 80.7762 19.6719C80.7682 19.6636 80.762 19.6536 80.7579 19.6428C80.7539 19.6319 80.752 19.6204 80.7526 19.6088V0.363795C80.752 0.352222 80.7539 0.340658 80.7579 0.329804C80.762 0.318949 80.7682 0.309031 80.7762 0.30065C80.7842 0.292269 80.7938 0.285601 80.8044 0.281049C80.8151 0.276497 80.8266 0.274157 80.8381 0.27417H95.0682C95.0913 0.275219 95.1131 0.285123 95.129 0.301819C95.1449 0.318514 95.1538 0.340714 95.1538 0.363795V4.12806C95.1538 4.15114 95.1449 4.17334 95.129 4.19004C95.1131 4.20673 95.0913 4.21664 95.0682 4.21769H85.0465V7.94936H93.8542C93.8769 7.94936 93.8987 7.95837 93.9147 7.97442C93.9308 7.99046 93.9398 8.01222 93.9398 8.03491V11.8155C93.9388 11.8378 93.9294 11.859 93.9136 11.8749C93.8978 11.8907 93.8766 11.9 93.8542 11.901H85.0465V15.7671H95.2027C95.2257 15.7682 95.2475 15.7781 95.2634 15.7948C95.2794 15.8115 95.2882 15.8337 95.2882 15.8568V19.621C95.2854 19.6419 95.2752 19.6612 95.2596 19.6753C95.2439 19.6895 95.2238 19.6977 95.2027 19.6984Z" fill="black"/>
<path d="M113.694 19.6984H108.846C108.831 19.6981 108.817 19.6943 108.804 19.6872C108.792 19.6801 108.781 19.6699 108.773 19.6577L104.756 13.5469H101.627V19.617C101.628 19.6285 101.626 19.6401 101.622 19.6509C101.618 19.6618 101.612 19.6717 101.604 19.6801C101.596 19.6885 101.586 19.6951 101.575 19.6997C101.565 19.7042 101.553 19.7066 101.542 19.7066H97.3903C97.3673 19.7055 97.3455 19.6956 97.3296 19.6789C97.3136 19.6622 97.3048 19.64 97.3048 19.617V0.363795C97.3048 0.340714 97.3136 0.318514 97.3296 0.301818C97.3455 0.285123 97.3673 0.275219 97.3903 0.27417H106.015C108.386 0.27417 110.309 0.958582 111.576 2.25408C112.13 2.85653 112.559 3.56267 112.838 4.3318C113.118 5.10092 113.243 5.91781 113.205 6.73534V6.79238C113.205 9.64409 111.787 11.7829 109.209 12.7973L113.767 19.5558C113.776 19.5683 113.781 19.5833 113.781 19.5986C113.781 19.614 113.776 19.6289 113.767 19.6414C113.762 19.6567 113.752 19.6701 113.739 19.6802C113.726 19.6902 113.71 19.6965 113.694 19.6984ZM101.627 9.62372H105.746C107.652 9.62372 108.838 8.6134 108.838 6.98792V6.92682C108.838 5.20764 107.714 4.2625 105.664 4.2625H101.627V9.62372Z" fill="black"/>
<path d="M59.0429 0.27417H51.3554C51.3082 0.27417 51.2699 0.312473 51.2699 0.359721V19.6129C51.2699 19.6601 51.3082 19.6984 51.3554 19.6984H59.0429C59.0901 19.6984 59.1284 19.6601 59.1284 19.6129V0.359721C59.1284 0.312473 59.0901 0.27417 59.0429 0.27417Z" fill="black"/>
</svg>
