<svg width="503" height="85" viewBox="0 0 503 85" fill="none" xmlns="http://www.w3.org/2000/svg">
<path d="M15.95 0H0V73.13H47.81V60.54H15.95V0Z" fill="white"/>
<path d="M153.37 11.9102L139.58 52.4502L125.68 11.9102H109.52L130.32 73.1302H145.2L166.05 11.9102H153.37Z" fill="white"/>
<path d="M249.74 21.5403V11.9103H234.35V73.1303H249.74V36.5603C252.46 31.6003 258.13 24.1503 269.31 25.7903V10.7703C258.14 9.13031 252.46 16.5803 249.74 21.5403Z" fill="white"/>
<path d="M499.72 44.5205C497.54 41.6605 493.07 38.8005 486.06 35.7705L481.9 33.9706C479.5 32.9506 477.84 31.9005 476.97 30.8705C476.1 29.8605 475.65 28.7105 475.65 27.4405C475.65 25.7705 476.31 24.4506 477.68 23.4006C479.06 22.3206 481.19 21.7805 484.01 21.7805C490.22 21.7805 498.81 25.3705 498.81 25.3705V12.8005C498.81 12.8005 490.53 10.5605 482.89 10.5605C475.25 10.5605 469.76 12.3206 466.07 15.7906C462.1 19.5506 460.09 24.0205 460.09 29.0905C460.09 33.1605 461.52 36.9305 464.22 39.9905C466.65 42.7905 470.42 45.3605 475.43 47.6405L480.27 49.8105C482.71 50.9105 484.44 51.9805 485.56 53.0705C486.65 54.1405 487.18 55.4205 487.18 57.0005C487.18 58.8106 486.46 60.2705 484.99 61.4505C483.49 62.6505 481.5 63.2406 478.92 63.2406C470.15 63.2406 459.83 57.9106 459.83 57.9106V71.0005C459.83 71.0005 469.63 74.5005 479.9 74.5005C487.36 74.5005 493.13 72.5205 497.05 68.6205C500.98 64.7205 502.97 60.1105 502.97 54.9105C502.97 50.9305 501.88 47.4305 499.72 44.5105V44.5205Z" fill="white"/>
<path d="M78.5909 10.6008C61.0209 10.9408 54.2109 28.8008 54.2109 42.0908C54.2109 55.3808 59.6309 69.6508 74.3409 73.3408C89.0509 77.0308 102.971 71.0008 102.971 71.0008V58.4308C102.971 58.4308 90.7009 63.9908 82.4909 62.3508C74.3909 60.7308 70.9109 54.2708 70.3409 47.5108H102.961C103.281 24.4408 98.0009 10.2308 78.5809 10.6008H78.5909ZM87.8309 36.7408H69.9709C70.7709 28.8808 73.7009 21.7808 79.4209 21.7808C88.5909 21.7808 87.8309 36.7408 87.8309 36.7408Z" fill="white"/>
<path d="M195.751 10.6008C178.181 10.9408 171.371 28.8008 171.371 42.0908C171.371 55.3808 176.791 69.6508 191.501 73.3408C206.211 77.0308 220.131 71.0008 220.131 71.0008V58.4308C220.131 58.4308 207.861 63.9908 199.651 62.3508C191.551 60.7308 188.071 54.2708 187.501 47.5108H220.121C220.441 24.4408 215.161 10.2308 195.741 10.6008H195.751ZM204.991 36.7408H187.131C187.931 28.8808 190.861 21.7808 196.581 21.7808C205.751 21.7808 204.991 36.7408 204.991 36.7408Z" fill="white"/>
<path d="M423.37 10.6008C405.8 10.9408 398.99 28.8008 398.99 42.0908C398.99 55.3808 404.41 69.6508 419.12 73.3408C434.06 77.0808 447.75 71.0008 447.75 71.0008V58.4308C447.75 58.4308 435.48 63.9908 427.27 62.3508C419.17 60.7308 415.69 54.2708 415.12 47.5108H447.74C448.06 24.4408 442.78 10.2308 423.36 10.6008H423.37ZM432.61 36.7408H414.75C415.55 28.8808 418.48 21.7808 424.2 21.7808C433.37 21.7808 432.61 36.7408 432.61 36.7408Z" fill="white"/>
<path d="M307.921 66.75C310.881 76.45 321.511 75.31 328.021 72.84V61.57C328.021 61.57 322.001 64.15 322.001 58.42V29.92C322.001 22.53 319.801 14.75 309.661 11.78C299.381 8.76997 288.501 11.55 280.881 14.93V27.49C280.881 27.49 289.711 21.66 298.211 21.79C303.711 21.88 307.261 23.85 307.261 30.47V33.06C307.261 33.06 305.471 33.02 304.001 33.06C298.781 33.2 289.371 34.4 282.781 40.89C278.481 45.12 276.211 50.56 276.211 56.62C276.211 61.61 278.271 68.83 284.011 72.26C289.401 75.48 299.851 76.41 307.921 66.75ZM294.171 47.34C296.391 45.51 299.831 44.59 304.391 44.59H307.251V56.3C302.711 61.22 297.621 62.59 294.531 60.86C291.601 59.22 290.911 56.31 290.911 54.1C290.911 51.42 292.011 49.14 294.171 47.34Z" fill="white"/>
<path d="M373.99 11.7303L372.67 16.4603C367.67 11.6503 363.15 10.5703 358.36 10.5703C351.3 10.5703 347.37 12.6603 343.24 16.7803C339.11 20.9103 335.73 29.0103 335.73 38.4903C335.73 47.9703 339.51 58.3703 347.85 61.9103C356.19 65.4503 366.89 63.9703 372.42 54.1403V59.0103C372.42 65.2303 371.28 70.9403 361.61 72.2403C351.94 73.5403 341.42 68.2103 341.42 68.2103V80.9703C346.08 82.5703 362.65 87.3903 374.9 81.5303C387.04 75.7203 387.49 61.3203 387.49 51.7903V11.7403H373.99V11.7303ZM372.42 43.0903C369.09 48.1803 362.32 52.4203 356.87 49.4103C351.77 46.5903 351.73 39.7103 351.73 37.7303C351.73 32.7203 352.86 27.3303 356.03 24.1703C359.2 21.0003 365.92 19.3103 372.42 26.5303V43.1003V43.0903Z" fill="white"/>
</svg>
